<svg width="600" height="530" viewBox="0 0 600 530" fill="none" xmlns="http://www.w3.org/2000/svg">
<path d="M135.723 44.0313C202.219 93.9523 273.743 195.171 300.003 249.491C326.265 195.175 397.785 93.9513 464.283 44.0313C512.263 8.01034 590.003 -19.8607 590.003 68.8263C590.003 86.5383 579.848 217.616 573.892 238.896C553.189 312.88 477.748 331.75 410.642 320.329C527.942 340.293 557.782 406.421 493.339 472.549C370.949 598.139 317.429 441.038 303.709 400.783C301.195 393.404 300.019 389.951 300.002 392.887C299.984 389.951 298.808 393.404 296.294 400.783C282.58 441.038 229.061 598.143 106.664 472.549C42.22 406.421 72.059 340.289 189.361 320.329C122.253 331.75 46.811 312.88 26.111 238.896C20.1548 217.614 10 86.5363 10 68.8263C10 -19.8607 87.742 8.01034 135.72 44.0313H135.723Z" fill="white"/>
</svg>
