<svg width="16" height="16" viewBox="0 0 16 16" fill="none" xmlns="http://www.w3.org/2000/svg">
<g clip-path="url(#clip0_3277_25460)">
<path d="M6.16594 8C6.05694 8 5.94901 8.02147 5.84831 8.06318C5.74761 8.10489 5.65611 8.16603 5.57904 8.2431C5.50197 8.32017 5.44083 8.41167 5.39912 8.51237C5.35741 8.61307 5.33594 8.721 5.33594 8.83C5.33594 9.289 5.70794 9.67 6.16594 9.661C6.38121 9.65353 6.58518 9.56276 6.73482 9.40783C6.88447 9.25289 6.96811 9.0459 6.96811 8.8305C6.96811 8.6151 6.88447 8.40811 6.73482 8.25317C6.58518 8.09824 6.38121 8.00747 6.16594 8ZM8.00894 11.647C8.32394 11.647 9.41194 11.609 9.98494 11.036C10.0225 10.9939 10.0432 10.9394 10.0432 10.883C10.0432 10.8266 10.0225 10.7721 9.98494 10.73C9.96508 10.7095 9.9413 10.6932 9.91502 10.6821C9.88873 10.6709 9.86048 10.6652 9.83194 10.6652C9.80339 10.6652 9.77514 10.6709 9.74886 10.6821C9.72257 10.6932 9.6988 10.7095 9.67894 10.73C9.32594 11.093 8.55294 11.217 8.00894 11.217C7.46394 11.217 6.70094 11.093 6.33794 10.73C6.31808 10.7095 6.2943 10.6932 6.26802 10.6821C6.24173 10.6709 6.21348 10.6652 6.18494 10.6652C6.15639 10.6652 6.12814 10.6709 6.10186 10.6821C6.07557 10.6932 6.0518 10.7095 6.03194 10.73C6.01143 10.7499 5.99513 10.7736 5.984 10.7999C5.97286 10.8262 5.96713 10.8545 5.96713 10.883C5.96713 10.9115 5.97286 10.9398 5.984 10.9661C5.99513 10.9924 6.01143 11.0161 6.03194 11.036C6.59594 11.599 7.68394 11.646 8.00894 11.646V11.647ZM9.00094 8.84C9.00094 9.298 9.37394 9.67 9.83194 9.67C10.2899 9.67 10.6619 9.289 10.6619 8.84C10.6515 8.62692 10.5595 8.42602 10.405 8.27891C10.2504 8.1318 10.0453 8.04976 9.83194 8.04976C9.6186 8.04976 9.41343 8.1318 9.25892 8.27891C9.10441 8.42602 9.0124 8.62692 9.00194 8.84H9.00094Z" fill="white"/>
<path d="M16 8C16 10.1217 15.1571 12.1566 13.6569 13.6569C12.1566 15.1571 10.1217 16 8 16C5.87827 16 3.84344 15.1571 2.34315 13.6569C0.842855 12.1566 0 10.1217 0 8C0 5.87827 0.842855 3.84344 2.34315 2.34315C3.84344 0.842855 5.87827 0 8 0C10.1217 0 12.1566 0.842855 13.6569 2.34315C15.1571 3.84344 16 5.87827 16 8ZM12.172 6.835C11.857 6.835 11.57 6.959 11.36 7.16C10.559 6.587 9.46 6.215 8.239 6.167L8.773 3.666L10.511 4.038C10.5186 4.20028 10.5737 4.35675 10.6694 4.48802C10.7652 4.61928 10.8973 4.71958 11.0495 4.77646C11.2016 4.83334 11.3672 4.84432 11.5255 4.80802C11.6839 4.77173 11.8281 4.68976 11.9403 4.57228C12.0525 4.45479 12.1278 4.30697 12.1568 4.14711C12.1858 3.98726 12.1672 3.82242 12.1034 3.67302C12.0396 3.52361 11.9333 3.39622 11.7978 3.30662C11.6623 3.21703 11.5035 3.16918 11.341 3.169C11.1856 3.16954 11.0335 3.2137 10.902 3.29643C10.7704 3.37917 10.6648 3.49717 10.597 3.637L8.659 3.227C8.63292 3.22121 8.60594 3.22071 8.57967 3.22552C8.55339 3.23033 8.52834 3.24035 8.506 3.255C8.48325 3.27026 8.46388 3.29002 8.44909 3.31307C8.4343 3.33612 8.4244 3.36197 8.42 3.389L7.828 6.177C6.588 6.215 5.47 6.587 4.658 7.169C4.448 6.969 4.162 6.845 3.848 6.845C3.58171 6.84461 3.32334 6.93561 3.11608 7.10281C2.90881 7.27001 2.76521 7.50327 2.70925 7.76362C2.65329 8.02397 2.68838 8.29564 2.80864 8.53323C2.9289 8.77082 3.12706 8.95994 3.37 9.069C3.35 9.18233 3.34033 9.3 3.341 9.422C3.341 11.217 5.432 12.678 8.01 12.678C10.588 12.678 12.678 11.227 12.678 9.422C12.678 9.308 12.668 9.184 12.649 9.069C13.05 8.888 13.337 8.477 13.337 8C13.337 7.35 12.812 6.835 12.172 6.835Z" fill="white"/>
</g>
<defs>
<clipPath id="clip0_3277_25460">
<rect width="16" height="16" fill="white"/>
</clipPath>
</defs>
</svg>
